<?xml version="1.0" encoding="utf-8"?>
<!-- Generator: Adobe Illustrator 16.0.0, SVG Export Plug-In . SVG Version: 6.00 Build 0)  -->
<!DOCTYPE svg PUBLIC "-//W3C//DTD SVG 1.1//EN" "http://www.w3.org/Graphics/SVG/1.1/DTD/svg11.dtd">
<svg version="1.1" id="Layer_1" xmlns="http://www.w3.org/2000/svg" xmlns:xlink="http://www.w3.org/1999/xlink" x="0px" y="0px"
	 width="512px" height="512px" viewBox="0 0 512 512" enable-background="new 0 0 512 512" xml:space="preserve">
<rect x="-51.5" y="-54.5" fill="#222222" stroke="#000000" stroke-miterlimit="10" width="595" height="617"/>
<g>
	<rect x="79" y="77" fill="none" width="509" height="512"/>
	<path fill="#4C4B4B" d="M165.229,319.811v120.978h-63.063V117.322h85.8c74.646,0,111.97,33.462,111.97,100.386
		c0,34.039-8.869,59.563-26.599,76.577c-17.736,17.019-43.329,25.525-76.791,25.525H165.229z M165.229,169.66v97.813h12.87
		c20.304,0,34.963-3.433,43.972-10.297c9.009-6.864,13.514-20.163,13.514-39.896c0-19.158-4.866-31.887-14.586-38.181
		c-9.726-6.288-24.601-9.438-44.616-9.438H165.229z"/>
	<path fill="#4C4B4B" d="M282.777,383.945c7.434-7.293,16.442-10.939,27.027-10.939c10.577,0,19.586,3.646,27.027,10.939
		c7.434,7.293,11.152,16.235,11.152,26.813c0,10.585-3.719,19.667-11.152,27.242c-7.441,7.574-16.45,11.368-27.027,11.368
		c-10.585,0-19.594-3.794-27.027-11.368c-7.441-7.575-11.154-16.657-11.154-27.242C271.623,400.181,275.336,391.238,282.777,383.945
		z"/>
</g>
<g>
	<rect x="76" y="74" fill="none" width="509" height="512"/>
	<path fill="#FFFFFF" d="M162.229,316.811v120.978H99.166V114.322h85.8c74.646,0,111.97,33.462,111.97,100.386
		c0,34.039-8.869,59.563-26.599,76.577c-17.736,17.019-43.329,25.525-76.791,25.525H162.229z M162.229,166.66v97.813h12.87
		c20.304,0,34.963-3.433,43.972-10.296c9.009-6.864,13.514-20.163,13.514-39.897c0-19.158-4.866-31.887-14.586-38.181
		c-9.726-6.288-24.601-9.438-44.616-9.438H162.229z"/>
	<path fill="#FFFFFF" d="M279.777,380.945c7.434-7.293,16.442-10.939,27.027-10.939c10.577,0,19.586,3.646,27.027,10.939
		c7.434,7.293,11.152,16.235,11.152,26.813c0,10.585-3.719,19.667-11.152,27.242c-7.441,7.574-16.45,11.368-27.027,11.368
		c-10.585,0-19.594-3.794-27.027-11.368c-7.441-7.575-11.154-16.657-11.154-27.242C268.623,397.181,272.336,388.238,279.777,380.945
		z"/>
</g>
<g>
</g>
<g>
</g>
<g>
</g>
<g>
</g>
<g>
</g>
<g>
</g>
<g>
</g>
<g>
</g>
<g>
</g>
<g>
</g>
<g>
</g>
<g>
</g>
<g>
</g>
<g>
</g>
<g>
</g>
</svg>
